<svg xmlns="http://www.w3.org/2000/svg" version="1.0" width="300.000000pt" height="300.000000pt" viewBox="0 0 300.000000 300.000000" preserveAspectRatio="xMidYMid meet">
<metadata fill="#ffffff">
Created by potrace 1.10, written by Peter Selinger 2001-2011
</metadata>
<g transform="translate(0.000000,300.000000) scale(0.100000,-0.100000)" fill="#ffffff" stroke="none">
<path d="M1370 2860 l-35 -6 38 -8 c21 -5 66 -6 100 -3 167 14 405 -42 609 -144 110 -56 110 -68 -2 -69 -51 -1 -60 -3 -42 -11 13 -5 28 -7 32 -4 5 3 14 -4 20 -15 7 -13 21 -20 41 -20 17 0 38 -4 47 -9 10 -5 38 -11 64 -14 61 -7 72 -14 147 -92 75 -78 73 -85 -26 -95 -38 -4 -52 -8 -32 -9 20 0 38 -4 42 -7 12 -12 -6 -34 -29 -34 -13 0 -24 -4 -24 -10 0 -5 17 -10 39 -10 21 0 52 -7 67 -15 16 -8 47 -15 70 -15 45 0 60 -12 88 -74 18 -38 18 -39 0 -50 -17 -9 -14 -11 21 -17 22 -4 41 -6 43 -4 1 1 -19 40 -45 86 l-48 84 -70 3 c-39 2 -74 7 -78 11 -16 16 13 50 48 57 19 3 35 11 35 16 0 6 -42 52 -93 104 l-92 94 -62 0 c-52 0 -64 3 -73 20 -16 29 -3 42 33 35 l32 -6 -25 20 c-47 39 -265 141 -355 166 -166 47 -377 67 -485 45z" fill="#ffffff"/>
<path d="M1142 2825 c-99 -31 -126 -74 -120 -195 l3 -76 -35 -31 c-20 -17 -54 -67 -77 -110 -23 -43 -62 -114 -88 -158 -25 -44 -50 -95 -55 -114 -6 -21 -6 -112 0 -240 5 -113 12 -316 16 -451 9 -273 15 -266 35 38 26 413 22 380 38 352 8 -14 33 -50 56 -80 l43 -55 8 -220 c5 -121 9 -258 9 -305 1 -47 2 -141 3 -210 l2 -125 55 3 c33 2 53 8 49 14 -3 5 -25 8 -48 6 l-41 -3 3 70 c1 39 9 160 17 270 8 110 17 245 21 300 l7 99 29 -34 c58 -67 61 -84 60 -335 0 -274 -10 -547 -20 -557 -4 -4 -84 -25 -177 -46 l-169 -39 -43 -60 c-32 -45 -58 -68 -104 -93 -33 -17 -59 -34 -57 -36 2 -2 35 2 73 8 60 10 77 18 120 55 l50 43 97 0 98 0 22 -45 c12 -24 20 -47 17 -49 -3 -3 -47 -28 -99 -56 -85 -46 -91 -50 -55 -46 59 9 291 26 341 26 43 0 44 -1 43 -32 0 -18 -8 -58 -17 -88 -16 -49 -23 -58 -62 -78 l-45 -22 45 5 c108 14 98 5 126 118 3 15 11 27 18 27 30 -2 106 -27 99 -34 -4 -4 0 -4 10 0 9 3 46 1 82 -6 64 -12 65 -13 96 -66 30 -53 31 -54 77 -54 26 0 64 -4 85 -9 21 -5 37 -5 37 0 0 5 -4 9 -8 9 -4 0 -22 12 -40 27 -26 23 -33 39 -42 92 -5 36 -8 66 -7 67 2 3 165 -32 197 -41 9 -3 24 -19 33 -35 17 -28 73 -67 83 -57 2 2 -7 14 -21 27 -31 29 -36 90 -7 90 39 0 138 -22 159 -36 12 -8 41 -14 64 -14 l41 0 -20 33 c-23 36 -68 55 -149 64 -29 3 -53 10 -53 15 0 5 9 27 20 49 17 32 25 39 41 34 11 -4 61 -7 112 -8 88 -1 90 -2 45 -12 -51 -11 -73 -25 -40 -25 27 0 103 30 98 39 -2 3 6 7 17 7 12 1 37 8 55 15 l33 14 -121 41 -121 42 44 36 c24 20 50 36 57 36 7 0 44 -11 83 -25 38 -14 71 -24 73 -23 1 2 -50 33 -114 69 -96 54 -132 69 -202 83 -47 9 -108 16 -136 16 l-52 0 -7 173 c-4 94 -4 244 -1 331 4 141 7 162 25 185 12 14 31 43 43 63 29 48 38 48 38 1 0 -78 34 -383 43 -383 5 0 7 19 4 43 -4 38 1 166 18 462 4 60 12 119 17 130 6 11 32 74 58 140 l48 120 6 -55 c10 -95 26 -357 26 -438 0 -47 4 -71 9 -62 5 8 11 148 15 310 3 162 9 336 12 386 5 72 3 97 -10 122 -9 17 -16 46 -16 65 0 65 -121 199 -197 220 -32 8 -49 20 -59 39 -47 91 -189 152 -265 114 -19 -9 -35 -13 -36 -9 -12 34 -49 77 -78 89 -38 16 -161 19 -198 5 -13 -5 -31 -17 -40 -26 -15 -15 -17 -13 -31 18 -21 51 -50 67 -121 66 -33 0 -79 -6 -103 -14z m163 -17 c31 -14 33 -28 3 -20 -20 5 -19 0 13 -35 35 -39 36 -41 42 -149 4 -60 9 -119 13 -131 9 -31 -4 -29 -72 12 -33 20 -84 43 -114 51 -80 22 -84 25 -98 93 -13 57 -12 64 7 102 26 49 26 57 1 34 -33 -30 -43 -77 -29 -140 7 -30 9 -58 5 -62 -11 -11 -27 13 -37 56 -12 54 2 110 37 144 47 47 171 72 229 45z m305 -51 c57 -20 62 -40 55 -231 -6 -161 -13 -206 -36 -206 -5 0 -30 15 -54 33 -50 36 -83 105 -92 195 -3 28 -10 52 -14 52 -16 0 -9 -94 11 -150 20 -58 18 -77 -5 -46 -22 29 -45 148 -45 226 0 81 -15 86 -24 8 -6 -49 2 -121 19 -190 5 -18 3 -28 -4 -28 -19 0 -32 51 -38 145 -7 114 3 153 47 183 38 25 120 29 180 9z m283 -103 c41 -21 85 -62 102 -95 9 -17 26 -29 45 -33 61 -12 153 -94 192 -171 36 -71 26 -204 -26 -355 -28 -80 -192 -452 -209 -473 -8 -11 -52 -20 -147 -32 -95 -11 -150 -23 -188 -40 -73 -33 -153 -46 -232 -36 -36 5 -66 7 -68 6 -1 -1 9 -10 23 -19 15 -10 55 -19 93 -22 68 -6 86 -2 212 44 69 25 113 32 131 21 11 -6 11 -11 1 -21 -6 -6 -12 -29 -12 -50 0 -37 -1 -37 -27 -27 -14 5 -38 8 -52 5 -29 -6 -124 -7 -290 -3 -108 2 -116 1 -143 -21 l-27 -23 -5 23 c-3 13 -7 55 -9 93 -4 72 -17 106 -64 163 l-26 33 24 -10 c13 -5 41 -18 61 -29 20 -12 53 -24 73 -28 20 -3 42 -13 50 -21 12 -12 18 -12 44 2 17 8 35 23 40 33 8 15 2 17 -67 17 -91 0 -124 13 -231 94 l-75 56 90 5 c92 6 92 6 -16 31 -72 16 -149 68 -242 163 -49 48 -88 83 -88 77 0 -42 117 -203 273 -378 56 -62 106 -124 112 -136 19 -44 9 -303 -20 -492 -14 -99 -28 -182 -31 -184 -7 -7 -4 75 6 226 11 154 0 390 -21 453 -6 19 -27 51 -46 71 -54 57 -250 329 -278 386 -33 68 -46 135 -33 180 5 19 29 65 54 103 24 37 64 109 90 159 25 51 56 99 69 107 62 41 168 25 276 -43 41 -25 98 -54 126 -64 65 -22 104 -44 58 -33 -16 5 -50 8 -75 8 -41 1 -46 -2 -67 -39 -40 -71 -26 -117 46 -155 74 -38 134 -29 181 28 28 34 30 35 30 13 0 -33 -85 -116 -132 -129 -48 -13 -92 -2 -147 38 -23 17 -46 28 -50 25 -5 -3 -32 11 -60 30 -58 40 -66 42 -80 18 -9 -17 -10 -17 -29 0 -11 10 -30 38 -43 63 -13 24 -27 44 -31 44 -15 0 -8 -87 7 -100 25 -20 18 -25 -30 -22 -71 6 -52 -28 40 -70 42 -19 46 -23 27 -26 -13 -2 -41 3 -63 12 -50 20 -51 3 -1 -24 l37 -21 -37 5 c-21 3 -38 1 -38 -4 0 -13 58 -23 98 -16 l37 6 -30 -25 c-28 -23 -28 -25 -8 -25 11 0 50 9 85 20 119 37 160 25 260 -75 68 -67 88 -74 88 -29 0 17 -5 24 -20 24 -11 0 -46 26 -78 58 -71 71 -113 84 -217 66 -61 -10 -72 -10 -82 4 -7 8 -10 19 -7 24 4 5 -6 22 -21 38 -15 16 -25 33 -21 38 3 5 29 8 58 7 40 -2 73 -14 133 -45 44 -24 93 -50 110 -58 37 -20 112 -19 151 1 37 20 88 67 103 95 7 14 9 41 5 72 -6 46 -5 50 14 50 27 0 29 -11 18 -85 -12 -82 -2 -131 32 -153 33 -21 90 -42 119 -42 12 0 24 -8 28 -19 9 -28 40 -53 77 -60 18 -4 33 -11 32 -16 -1 -15 -160 -99 -211 -111 -38 -10 -109 23 -148 69 -19 22 -35 46 -35 53 0 7 -5 16 -12 20 -25 15 0 -78 29 -108 73 -78 155 -88 260 -31 171 92 226 109 256 78 29 -28 21 -77 -24 -144 -23 -34 -52 -69 -66 -78 -29 -20 -23 -29 9 -12 21 11 22 11 9 -5 -8 -10 -37 -29 -64 -42 -27 -14 -47 -28 -44 -30 3 -3 19 2 37 11 53 28 58 10 6 -23 -48 -31 -49 -32 -20 -32 56 0 91 33 135 128 80 171 169 403 169 439 0 11 -5 11 -21 3 -11 -7 -22 -10 -25 -8 -2 2 8 37 22 78 36 108 41 177 14 215 l-21 30 6 -45 c14 -97 -60 -315 -126 -375 -35 -32 -45 -35 -98 -35 -68 0 -109 12 -118 36 -3 9 20 71 55 147 33 73 72 169 87 214 29 89 57 123 104 123 36 0 9 17 -41 25 -28 5 -43 15 -59 41 -26 43 -32 39 -20 -15 8 -37 3 -63 -41 -214 -56 -192 -76 -239 -114 -264 -24 -16 -29 -15 -80 2 -30 10 -59 24 -65 31 -11 14 -6 99 12 180 4 22 13 92 19 155 13 138 35 224 64 245 25 18 90 13 139 -12z m-382 -319 c16 -9 33 -23 36 -31 9 -24 -7 -65 -38 -96 -33 -34 -48 -33 -136 7 -47 21 -53 27 -53 54 0 44 10 62 44 77 36 17 102 12 147 -11z m625 -324 c-3 -21 -14 -57 -23 -80 l-18 -42 -33 25 -33 24 27 21 c15 12 38 37 51 56 13 19 26 35 30 35 3 0 3 -18 -1 -39z m-1072 -237 c9 -3 16 -15 16 -26 0 -19 -2 -19 -22 -6 -39 26 -34 48 6 32z m845 -410 c-7 -70 -10 -191 -6 -339 8 -345 -9 -245 -36 210 -1 17 2 49 7 71 7 41 7 41 -18 37 -32 -6 -33 3 -3 28 l22 18 -22 1 c-32 0 -37 17 -8 24 13 3 35 20 47 36 12 16 23 28 25 26 2 -2 -1 -53 -8 -112z m-511 -66 c2 -13 -3 -18 -17 -18 -16 0 -21 -6 -21 -25 0 -16 6 -25 15 -25 9 0 15 -9 15 -21 0 -15 -5 -19 -15 -15 -12 4 -15 -4 -15 -39 0 -41 -2 -45 -25 -45 l-25 0 0 106 0 105 42 -3 c31 -2 44 -8 46 -20z m52 -83 c0 -98 -1 -105 -20 -105 -19 0 -20 7 -20 105 0 98 1 105 20 105 19 0 20 -7 20 -105z m104 89 c9 -22 -1 -33 -24 -27 -19 5 -20 0 -20 -61 0 -37 4 -66 10 -66 6 0 10 18 10 40 0 33 3 40 20 40 18 0 20 -7 20 -60 l0 -60 -34 0 c-64 0 -66 3 -66 104 0 51 3 96 7 99 13 14 71 7 77 -9z m76 -29 c0 -25 5 -45 10 -45 6 0 10 20 10 45 0 38 3 45 20 45 19 0 20 -7 20 -105 0 -98 -1 -105 -20 -105 -17 0 -20 7 -20 39 0 22 -4 43 -10 46 -6 4 -10 -12 -10 -39 0 -39 -3 -46 -19 -46 -18 0 -20 9 -23 101 -2 55 -1 103 1 105 2 2 13 4 23 4 15 0 18 -8 18 -45z m160 36 c0 -5 3 -17 6 -25 5 -12 2 -15 -10 -10 -14 5 -16 -5 -16 -80 0 -79 -2 -86 -20 -86 -18 0 -20 7 -20 85 0 66 -3 85 -14 85 -9 0 -12 7 -9 20 4 16 14 20 44 20 22 0 39 -4 39 -9z m63 -231 c3 -41 9 -100 13 -131 6 -50 4 -58 -15 -71 -14 -10 -33 -13 -58 -9 l-38 7 3 97 c3 88 6 100 28 122 19 20 24 34 24 79 0 30 3 62 7 72 9 24 29 -67 36 -166z m-548 13 c14 -13 31 -23 38 -23 18 0 13 -180 -5 -191 -7 -5 -32 -9 -56 -9 -23 0 -54 -7 -67 -16 -29 -19 -30 -15 -11 47 8 26 22 91 30 145 23 142 24 148 26 159 1 6 6 -12 11 -40 5 -35 16 -57 34 -72z m172 -30 c2 -6 -6 -13 -19 -15 -31 -4 -39 -48 -9 -48 14 0 21 -6 21 -20 0 -12 -7 -20 -18 -20 -14 0 -17 -7 -14 -40 4 -37 2 -40 -22 -40 l-26 0 0 98 c0 54 2 101 5 104 9 9 78 -7 82 -19z m111 -80 l-3 -98 -45 0 -45 0 -3 84 c-2 46 -1 90 2 98 3 8 22 13 51 13 l46 0 -3 -97z m130 39 c2 -30 -2 -59 -8 -67 -7 -9 -7 -21 0 -39 14 -37 13 -38 -12 -34 -15 2 -25 14 -32 38 l-10 35 -4 -37 c-2 -30 -7 -38 -23 -38 -18 0 -19 8 -19 101 l0 100 53 -3 52 -3 3 -53z m-418 -202 c0 -11 -7 -20 -15 -20 -8 0 -15 -9 -15 -20 0 -11 5 -20 10 -20 6 0 10 -7 10 -16 0 -8 -4 -12 -10 -9 -6 4 -10 -8 -10 -29 0 -29 -4 -36 -20 -36 -18 0 -20 7 -20 85 l0 85 35 0 c28 0 35 -4 35 -20z m84 14 c18 -7 23 -98 6 -109 -7 -4 -7 -12 0 -25 14 -26 13 -30 -10 -30 -15 0 -20 7 -20 25 0 14 -5 25 -11 25 -7 0 -9 -10 -5 -25 5 -20 3 -25 -14 -25 -18 0 -20 6 -20 78 0 43 3 82 7 85 8 9 46 9 67 1z m96 -14 c0 -11 -7 -20 -15 -20 -8 0 -15 -9 -15 -20 0 -11 5 -20 10 -20 6 0 10 -7 10 -16 0 -8 -4 -12 -10 -9 -5 3 -10 -3 -10 -14 0 -12 7 -21 15 -21 8 0 15 -7 15 -15 0 -10 -11 -15 -35 -15 l-35 0 0 85 0 85 35 0 c28 0 35 -4 35 -20z m80 0 c0 -11 -7 -20 -15 -20 -8 0 -15 -9 -15 -20 0 -12 7 -20 16 -20 9 0 14 -6 11 -12 -2 -7 -10 -12 -16 -10 -6 1 -11 -7 -11 -18 0 -11 7 -20 15 -20 8 0 15 -7 15 -15 0 -10 -11 -15 -35 -15 l-35 0 0 78 c0 43 3 82 7 85 3 4 19 7 35 7 21 0 28 -5 28 -20z m98 -67 l3 -83 -45 0 -44 0 3 83 c1 45 3 83 4 85 0 2 18 2 39 0 l37 -3 3 -82z m86 81 c13 -5 16 -22 16 -85 l0 -79 -40 0 -40 0 0 78 c0 43 3 82 7 85 8 9 36 9 57 1z m72 -29 c7 -41 24 -37 24 6 0 22 5 29 20 29 18 0 20 -7 20 -85 0 -69 -3 -85 -15 -85 -11 0 -15 11 -16 38 l-1 37 -13 -35 c-13 -33 -14 -34 -14 -8 -1 15 -6 30 -12 34 -9 5 -10 -3 -5 -30 6 -31 4 -36 -12 -36 -17 0 -19 8 -19 85 1 74 3 85 19 85 12 0 19 -11 24 -35z m-598 -157 c18 -19 25 -20 47 -10 19 9 32 9 46 1 13 -6 115 -10 292 -8 259 1 273 2 295 22 12 11 22 26 22 33 0 10 14 12 53 8 83 -8 220 -34 245 -46 l22 -12 -37 -38 c-33 -33 -36 -41 -27 -65 6 -19 24 -35 54 -50 58 -28 37 -38 -60 -29 -45 5 -77 3 -90 -4 -29 -16 -60 -69 -60 -105 0 -24 -7 -33 -34 -47 -30 -14 -40 -15 -97 -3 -35 8 -77 18 -92 24 -42 16 -72 13 -92 -9 -15 -16 -17 -30 -11 -85 8 -79 -6 -86 -53 -26 -17 21 -43 43 -58 49 -55 20 -253 63 -262 58 -5 -4 -12 2 -16 13 -13 42 -36 50 -143 52 -57 1 -102 5 -102 11 0 5 5 18 10 28 8 15 5 31 -11 65 -31 65 -49 75 -143 75 -50 0 -76 4 -70 9 10 11 198 61 226 61 10 0 32 13 49 28 26 24 33 39 40 91 13 93 23 96 30 8 4 -61 10 -82 27 -99z" fill="#ffffff"/>
<path d="M1125 2611 c9 -8 29 -17 130 -56 14 -6 17 -5 10 3 -6 6 -42 23 -80 37 -39 15 -65 22 -60 16z" fill="#ffffff"/>
<path d="M1540 2517 c26 -27 90 -51 76 -28 -4 6 -14 11 -23 11 -8 0 -29 10 -46 22 l-32 21 25 -26z" fill="#ffffff"/>
<path d="M1303 2378 c-31 -34 -43 -63 -42 -100 0 -32 1 -32 11 -8 5 14 21 49 34 78 13 28 22 52 21 52 -2 0 -13 -10 -24 -22z" fill="#ffffff"/>
<path d="M1731 2300 c21 -33 77 -70 103 -69 21 2 20 2 -1 6 -12 2 -43 23 -70 46 -35 30 -44 35 -32 17z" fill="#ffffff"/>
<path d="M1120 2280 c-12 -8 -9 -10 13 -10 16 0 44 -12 63 -26 19 -15 37 -24 40 -21 3 3 -5 11 -18 18 -12 7 -29 20 -36 31 -14 20 -39 23 -62 8z" fill="#ffffff"/>
<path d="M2099 2204 c-10 -12 -26 -15 -71 -12 -31 2 -55 1 -52 -4 3 -4 29 -8 58 -8 40 0 57 5 71 20 10 11 16 20 13 20 -3 0 -12 -7 -19 -16z" fill="#ffffff"/>
<path d="M1699 2101 c24 -22 56 -27 80 -12 9 6 2 10 -25 13 -22 3 -48 8 -59 12 -17 7 -17 5 4 -13z" fill="#ffffff"/>
<path d="M2048 2071 c-25 -45 -64 -65 -124 -65 -29 0 -48 -4 -41 -8 19 -12 99 -9 126 5 31 16 64 60 59 81 -2 12 -7 8 -20 -13z" fill="#ffffff"/>
<path d="M1297 1938 c52 -68 69 -87 96 -107 38 -29 14 8 -48 74 -36 38 -65 72 -65 76 0 4 -7 10 -16 13 -8 3 6 -22 33 -56z" fill="#ffffff"/>
<path d="M1010 1900 c14 -11 35 -23 48 -26 12 -3 22 -10 22 -15 0 -5 8 -9 18 -9 10 0 22 -4 28 -9 5 -5 43 -23 84 -39 46 -18 79 -38 86 -51 9 -18 13 -19 30 -7 25 19 18 24 -66 52 -39 13 -117 47 -173 75 -56 27 -91 41 -77 29z" fill="#ffffff"/>
<path d="M1445 1841 c80 -95 160 -142 212 -123 28 10 28 10 -10 11 -40 1 -105 29 -127 56 -7 9 -32 30 -54 47 -31 24 -36 26 -21 9z" fill="#ffffff"/>
<path d="M1810 1760 c-12 -8 -10 -9 11 -8 39 3 87 -21 98 -51 10 -25 10 -25 8 -2 -4 42 -84 83 -117 61z" fill="#ffffff"/>
<path d="M1290 1696 c0 -9 67 -45 95 -51 22 -4 16 2 -25 24 -53 29 -70 36 -70 27z" fill="#ffffff"/>
<path d="M1465 1622 c49 -19 75 -19 75 -1 0 5 -17 9 -37 9 -21 0 -49 3 -63 5 -14 3 -2 -3 25 -13z" fill="#ffffff"/>
<path d="M1539 1564 c-9 -8 -45 -26 -80 -39 -46 -17 -63 -28 -61 -39 2 -9 -7 -20 -20 -25 -22 -8 -22 -9 -4 -17 47 -18 200 42 214 84 2 7 -12 2 -32 -12 -36 -24 -132 -53 -143 -42 -3 3 3 8 13 11 41 13 103 48 125 71 25 26 13 34 -12 8z" fill="#ffffff"/>
<path d="M1623 1573 c-16 -6 -17 -24 -1 -20 6 1 17 -9 25 -23 12 -24 13 -24 13 -3 0 26 -10 53 -19 52 -3 0 -12 -3 -18 -6z" fill="#ffffff"/>
<path d="M1530 986 c0 -46 4 -66 13 -66 8 0 12 18 10 62 -2 86 -23 89 -23 4z" fill="#ffffff"/>
<path d="M1650 1015 c0 -24 5 -35 15 -35 10 0 15 11 15 35 0 24 -5 35 -15 35 -10 0 -15 -11 -15 -35z" fill="#ffffff"/>
<path d="M1346 803 c-12 -13 -6 -53 9 -53 9 0 15 9 15 24 0 26 -12 40 -24 29z" fill="#ffffff"/>
<path d="M1610 755 c0 -30 5 -55 10 -55 6 0 10 25 10 55 0 30 -4 55 -10 55 -5 0 -10 -25 -10 -55z" fill="#ffffff"/>
<path d="M1710 755 c0 -30 5 -55 10 -55 6 0 10 25 10 55 0 30 -4 55 -10 55 -5 0 -10 -25 -10 -55z" fill="#ffffff"/>
<path d="M908 2717 c-53 -28 -107 -59 -120 -69 -22 -16 -21 -16 38 -11 66 6 80 -2 69 -37 -6 -18 -15 -20 -104 -20 l-97 0 -92 -94 c-51 -51 -92 -97 -92 -102 0 -5 45 -8 99 -6 91 3 102 1 121 -18 12 -12 20 -29 18 -38 -3 -15 -23 -18 -153 -22 l-150 -5 -47 -80 c-25 -44 -47 -82 -47 -85 -1 -3 56 -3 127 -2 l127 4 14 -46 c7 -26 11 -49 8 -52 -3 -3 -75 -8 -161 -11 l-155 -6 -16 -56 c-9 -31 -18 -64 -21 -73 -5 -17 11 -18 232 -18 174 0 235 3 227 11 -7 7 -76 11 -205 11 -107 0 -200 3 -208 8 -15 9 -6 72 13 88 7 6 69 12 142 13 72 0 135 5 140 9 6 5 33 13 60 18 33 6 40 10 22 11 -19 1 -31 9 -39 26 -14 30 -9 36 39 45 36 7 34 8 -18 9 -37 1 -61 6 -69 16 -10 11 -36 15 -111 15 -65 0 -99 4 -99 11 0 13 29 66 49 92 12 14 32 17 125 17 70 1 126 6 151 15 22 8 50 15 63 15 12 0 22 3 22 8 0 4 -10 14 -22 22 -23 14 -22 14 17 26 l40 12 -43 1 c-24 1 -58 8 -75 16 -18 8 -63 16 -102 17 l-70 3 60 63 c33 35 67 68 77 73 9 5 53 11 98 13 45 3 87 9 93 15 7 5 30 11 51 13 33 2 40 7 41 26 1 18 -3 22 -29 22 -35 0 -80 26 -70 41 3 5 27 20 52 33 51 26 103 65 87 66 -5 0 -54 -24 -107 -53z" fill="#ffffff"/>
<path d="M2343 2114 c4 -4 38 -6 77 -6 38 1 79 -2 90 -6 21 -8 21 -8 -4 -35 -22 -24 -33 -27 -98 -29 -66 -1 -63 -2 35 -8 60 -4 113 -12 120 -19 6 -6 29 -11 52 -11 55 0 64 -8 67 -60 l3 -45 -48 -2 c-27 -1 -65 -7 -85 -13 -20 -5 -79 -10 -130 -10 -60 0 -91 -4 -87 -10 3 -5 37 -10 74 -10 52 0 74 -5 92 -19 l23 -18 -22 -7 c-31 -10 -27 -26 6 -26 32 0 75 21 74 35 -1 6 -16 12 -33 15 -18 3 -34 10 -36 16 -4 13 64 24 154 24 57 0 64 2 59 18 -3 9 -12 43 -21 75 l-16 57 -45 0 c-47 0 -124 20 -124 32 0 4 11 11 26 14 18 5 24 12 22 28 -3 20 -9 21 -118 24 -62 1 -111 0 -107 -4z" fill="#ffffff"/>
<path d="M710 1759 c-31 -16 -61 -18 -247 -19 l-213 0 0 -44 c0 -24 -3 -51 -6 -60 -5 -14 12 -16 152 -16 193 0 200 18 9 22 l-130 3 -1 30 c-1 17 4 33 10 37 6 4 93 7 194 7 193 1 256 10 273 43 12 22 5 21 -41 -3z" fill="#ffffff"/>
<path d="M2456 1773 c-4 -5 -35 -11 -69 -14 l-62 -6 65 -1 c36 -1 92 -9 123 -17 32 -8 91 -15 131 -15 79 0 86 -5 86 -56 0 -23 -3 -24 -56 -24 -36 0 -61 -5 -70 -15 -12 -12 -47 -15 -157 -17 l-142 -2 119 -3 c67 -2 126 -8 133 -15 17 -14 16 -68 -3 -93 -13 -17 -30 -21 -137 -26 l-122 -5 105 -3 c58 -1 116 -4 130 -7 35 -5 83 67 69 103 -6 16 -5 31 1 44 9 16 22 19 86 19 65 0 75 2 70 16 -3 9 -6 36 -6 60 l0 44 -97 0 c-96 0 -172 13 -184 31 -3 5 -9 6 -13 2z" fill="#ffffff"/>
<path d="M560 1601 c0 -8 -12 -27 -27 -43 l-26 -27 27 -39 27 -40 67 5 c92 6 100 11 20 12 -57 1 -69 4 -82 23 -21 29 -20 37 9 72 21 26 32 30 97 36 l73 6 -93 5 c-76 3 -92 1 -92 -10z" fill="#ffffff"/>
<path d="M261 1413 c5 -21 9 -41 9 -45 0 -5 114 -8 253 -8 158 0 246 4 236 10 -8 5 -116 10 -240 12 -216 3 -224 4 -224 23 0 19 8 20 120 23 178 5 169 22 -12 22 l-151 0 9 -37z" fill="#ffffff"/>
<path d="M2575 1440 c3 -5 25 -10 48 -10 55 0 87 -9 87 -25 0 -7 -7 -16 -16 -19 -9 -3 -134 -6 -279 -6 -165 0 -266 -4 -270 -10 -4 -7 95 -10 288 -10 323 0 307 -3 307 61 l0 29 -86 0 c-54 0 -83 -4 -79 -10z" fill="#ffffff"/>
<path d="M840 1370 c-11 -7 3 -10 45 -10 42 0 56 3 45 10 -8 5 -28 10 -45 10 -16 0 -37 -5 -45 -10z" fill="#ffffff"/>
<path d="M2130 1311 c12 -23 5 -61 -11 -61 -5 0 -9 -9 -9 -20 0 -13 7 -20 19 -20 13 0 24 14 36 46 18 48 15 57 -23 69 -22 6 -23 5 -12 -14z" fill="#ffffff"/>
<path d="M330 1160 c0 -5 5 -20 11 -34 l12 -25 303 -3 c167 -2 304 -2 304 -1 0 18 -78 25 -308 30 -147 2 -269 7 -271 9 -2 2 112 4 255 4 198 1 266 4 289 15 26 12 -9 13 -282 14 -192 1 -313 -3 -313 -9z" fill="#ffffff"/>
<path d="M2118 1158 c9 -10 83 -15 265 -18 254 -6 240 -8 -85 -12 -125 -2 -181 -7 -190 -16 -9 -9 43 -12 263 -12 l276 0 11 25 c7 14 12 30 12 35 0 6 -110 10 -282 10 -226 0 -280 -3 -270 -12z" fill="#ffffff"/>
<path d="M1970 1110 c-11 -7 -2 -10 33 -10 26 0 47 5 47 10 0 13 -60 13 -80 0z" fill="#ffffff"/>
<path d="M932 960 c3 -33 1 -54 -7 -60 -8 -7 -93 -9 -233 -8 -219 3 -221 3 -208 -17 13 -19 26 -20 252 -22 179 -1 233 1 217 9 -27 13 -30 28 -5 34 14 4 16 14 14 59 -3 41 -8 55 -19 55 -13 0 -15 -10 -11 -50z" fill="#ffffff"/>
<path d="M2225 890 c-143 -3 -256 -7 -251 -8 5 -1 3 -9 -4 -17 -11 -14 17 -15 260 -13 270 3 273 3 288 26 14 21 13 22 -9 20 -13 -1 -141 -5 -284 -8z" fill="#ffffff"/>
<path d="M920 455 c-25 -13 -67 -29 -95 -36 -79 -18 -81 -22 -35 -53 46 -31 48 -30 148 22 60 31 69 43 56 76 -8 21 -20 20 -74 -9z" fill="#ffffff"/>
<path d="M1150 304 c0 -4 8 -16 17 -27 17 -18 17 -21 -9 -68 l-28 -49 45 22 c37 18 45 27 45 49 0 15 -7 34 -15 42 -11 12 -12 17 -2 20 7 3 6 6 -5 6 -9 1 -23 4 -32 7 -9 3 -16 3 -16 -2z" fill="#ffffff"/>
<path d="M1770 237 c0 -14 3 -32 6 -41 5 -14 9 -14 26 -2 20 15 65 9 107 -13 12 -7 25 -11 27 -8 6 6 -9 46 -18 47 -4 0 -13 2 -20 4 -7 2 -31 9 -53 14 -22 5 -48 13 -57 17 -14 6 -18 2 -18 -18z" fill="#ffffff"/>
<path d="M1460 226 c0 -3 22 -12 50 -21 29 -10 57 -27 69 -43 11 -15 22 -24 25 -21 15 14 -38 60 -86 74 -57 17 -58 17 -58 11z" fill="#ffffff"/>
</g>
</svg>